<svg width="120" height="120" viewBox="0 0 120 120" fill="none" xmlns="http://www.w3.org/2000/svg">
<rect width="120" height="120" rx="60" fill="white"/>
<g clip-path="url(#clip0_604_621)">
<path d="M72.908 60.728L54.3598 73.0935C54.228 73.1812 54.0749 73.2315 53.9168 73.239C53.7587 73.2466 53.6015 73.2111 53.462 73.1364C53.3225 73.0617 53.2058 72.9506 53.1244 72.8148C53.0431 72.6791 53.0001 72.5238 53 72.3655V47.6345C53.0001 47.4762 53.0431 47.3209 53.1244 47.1852C53.2058 47.0494 53.3225 46.9383 53.462 46.8636C53.6015 46.7888 53.7587 46.7534 53.9168 46.7609C54.0749 46.7685 54.228 46.8188 54.3598 46.9065L72.908 59.272C73.0278 59.3519 73.1261 59.4602 73.1941 59.5872C73.262 59.7142 73.2976 59.856 73.2976 60C73.2976 60.144 73.262 60.2858 73.1941 60.4128C73.1261 60.5398 73.0278 60.6481 72.908 60.728Z" fill="#26272C"/>
</g>
<defs>
<clipPath id="clip0_604_621">
<rect width="42" height="42" fill="white" transform="translate(39 39)"/>
</clipPath>
</defs>
</svg>
