<svg width="276" height="276" viewBox="0 0 276 276" fill="none" xmlns="http://www.w3.org/2000/svg">
<rect width="276" height="276" fill="#151515"/>
<path d="M82.6328 185.524V90.4763H162.26C172.097 90.4763 179.719 92.9577 185.125 97.9206C190.619 102.883 193.366 110.416 193.366 120.519C193.366 129.116 191.372 135.851 187.384 140.725C183.396 145.599 177.725 148.657 170.369 149.898L192.303 185.524H168.109L147.77 150.562H103.902V185.524H82.6328ZM159.734 107.758H103.902V133.148L159.734 133.281C163.634 133.281 166.602 132.306 168.641 130.356C170.768 128.407 171.831 125.128 171.831 120.519C171.831 115.822 170.768 112.543 168.641 110.682C166.602 108.733 163.634 107.758 159.734 107.758Z" fill="white"/>
</svg>
